<?xml version="1.0" standalone="no"?>
<!DOCTYPE svg PUBLIC "-//W3C//DTD SVG 20010904//EN"
 "http://www.w3.org/TR/2001/REC-SVG-20010904/DTD/svg10.dtd">
<svg version="1.0" xmlns="http://www.w3.org/2000/svg"
 width="500.000000pt" height="500.000000pt" viewBox="0 0 500.000000 500.000000"
 preserveAspectRatio="xMidYMid meet">

<g transform="translate(0.000000,500.000000) scale(0.100000,-0.100000)"
fill="#683d2b60" stroke="none">
<path d="M2058 4793 c-9 -2 -25 -23 -36 -46 -26 -55 -70 -236 -86 -351 -14
-106 6 -98 -184 -73 -134 18 -373 22 -437 7 -57 -13 -78 -43 -70 -100 23 -165
42 -254 114 -537 l9 -32 -72 -11 c-202 -32 -366 -78 -403 -113 -30 -27 -29
-42 11 -145 57 -149 189 -399 305 -578 12 -18 11 -33 -5 -104 -21 -93 -9 -83
-159 -130 -116 -36 -327 -136 -369 -175 -41 -38 -31 -74 57 -208 71 -109 263
-357 287 -372 7 -5 -8 -19 -42 -37 -72 -41 -98 -67 -98 -98 0 -31 50 -129 136
-267 35 -55 64 -103 64 -106 0 -3 -12 -10 -28 -15 -15 -6 -57 -21 -93 -35
l-66 -26 -57 30 c-32 16 -103 60 -157 99 -54 39 -111 73 -126 76 -85 17 -173
-162 -173 -351 1 -93 13 -159 48 -257 l20 -58 -58 0 c-123 0 -134 -18 -138
-223 -3 -142 -5 -157 -21 -157 -10 0 -26 -9 -37 -21 -17 -19 -17 -23 -3 -47
l15 -27 2207 -3 2207 -2 16 25 c15 23 15 27 0 50 -14 21 -25 25 -61 25 l-45 0
0 223 c-1 310 -10 980 -15 994 -2 6 -17 14 -34 18 -30 6 -31 8 -31 61 0 107
-39 154 -127 154 l-53 0 0 108 c0 93 -3 111 -18 125 -21 19 -49 22 -72 7 -11
-7 -16 -37 -20 -122 l-5 -113 -55 -5 c-93 -8 -120 -40 -120 -141 0 -67 0 -67
-30 -74 -17 -4 -35 -15 -40 -25 -6 -10 -10 -93 -10 -183 l0 -164 -62 -42 -63
-41 -3 117 c-2 105 -5 120 -25 141 -15 16 -21 33 -18 57 3 45 -14 75 -43 75
-24 0 -24 2 -28 113 -2 61 -7 119 -11 127 -5 11 10 24 55 50 117 67 234 207
279 334 55 157 19 325 -87 412 l-42 34 20 73 c10 39 26 132 35 205 14 115 15
151 5 254 -31 308 -140 552 -339 759 -46 47 -83 94 -83 103 0 22 -55 154 -93
226 -39 72 -141 222 -174 254 -14 14 -34 28 -45 32 -26 8 -142 -49 -265 -132
l-96 -64 -76 68 c-195 173 -396 299 -579 361 -62 21 -73 22 -104 14z m147
-163 c135 -62 354 -210 438 -297 l37 -39 -112 -12 c-171 -19 -357 -75 -476
-143 -22 -13 -44 -21 -48 -17 -7 8 12 244 27 328 17 92 51 210 60 210 5 0 38
-13 74 -30z m988 -277 c47 -65 131 -212 125 -219 -3 -2 -41 13 -85 35 -43 22
-121 52 -173 66 -128 37 -129 37 -91 64 50 36 165 101 177 101 7 0 28 -21 47
-47z m-1445 -158 c179 -28 167 -21 170 -93 3 -61 2 -62 -35 -94 -117 -100
-231 -235 -306 -362 l-41 -71 -39 120 c-43 131 -101 371 -112 459 l-7 56 136
0 c75 0 180 -7 234 -15z m-238 -668 c0 -1 -16 -40 -35 -86 -59 -140 -119 -346
-140 -481 -4 -25 -10 -49 -12 -53 -16 -27 -281 448 -295 528 -3 17 8 23 87 43
110 28 249 49 333 51 34 0 62 0 62 -2z m1050 -192 c84 -44 148 -165 88 -165
-14 0 -31 11 -42 28 -34 52 -83 77 -147 77 -50 0 -63 -5 -98 -33 -65 -52 -106
-26 -61 38 50 71 178 98 260 55z m1053 -64 c54 -21 109 -109 86 -137 -18 -22
-27 -17 -54 26 -41 64 -103 66 -160 4 -37 -40 -65 -45 -65 -10 0 33 39 86 80
107 38 21 76 24 113 10z m-1162 -161 c50 -14 80 -50 86 -103 9 -81 -43 -138
-127 -139 -71 -1 -130 55 -130 125 0 46 37 99 80 114 44 15 47 15 91 3z m1182
-89 c110 -42 88 -201 -28 -201 -114 0 -151 142 -50 194 35 18 45 19 78 7z
m-699 -251 c6 0 29 21 52 46 l40 47 30 -46 c16 -26 34 -49 41 -51 6 -3 31 13
55 34 l44 38 24 -44 c14 -24 31 -44 40 -44 8 0 33 14 55 31 l40 30 14 -33 c7
-18 17 -43 22 -55 11 -29 26 -29 71 2 20 14 39 25 42 25 2 0 12 -22 21 -50 18
-54 27 -58 71 -35 15 8 29 13 30 12 1 -1 4 -26 5 -56 3 -52 2 -53 -31 -68 -42
-17 -50 -28 -50 -74 0 -42 -27 -73 -50 -59 -8 5 -30 10 -47 10 -30 0 -33 3
-33 33 0 45 -21 80 -50 87 -23 5 -25 11 -28 65 -3 86 -9 101 -39 113 -40 16
-211 1 -223 -18 -5 -8 -10 -48 -10 -87 0 -62 -3 -73 -17 -73 -32 0 -53 -31
-53 -77 0 -41 -1 -43 -29 -43 -37 0 -61 -31 -61 -78 l0 -33 -52 6 c-29 4 -86
13 -126 22 l-74 15 7 34 c9 51 -15 89 -66 102 -23 6 -47 8 -54 6 -8 -3 -15 7
-19 29 -4 19 -16 43 -27 53 -28 25 -103 24 -147 -1 -31 -19 -32 -19 -47 0 -16
22 -19 43 -16 90 4 48 17 52 70 22 27 -15 52 -27 55 -27 3 0 19 27 36 60 17
33 33 60 36 60 3 0 23 -13 44 -30 21 -16 45 -30 54 -30 9 0 30 23 47 50 17 28
34 50 38 50 4 0 22 -16 41 -35 19 -19 40 -35 47 -35 7 0 30 23 50 51 l37 52
39 -47 c21 -25 44 -46 51 -46z m316 -170 l0 -40 -45 0 -45 0 0 40 0 40 45 0
45 0 0 -40z m597 -85 c56 -68 87 -219 54 -259 -22 -26 -41 -1 -41 54 0 60 -20
118 -61 175 -17 24 -28 48 -25 54 13 21 45 11 73 -24z m-2587 -26 c0 -7 -9
-68 -20 -138 -34 -215 -39 -252 -51 -373 -7 -65 -15 -118 -19 -118 -3 0 -15
10 -26 23 -154 180 -305 373 -334 428 -9 16 -1 23 69 58 79 40 206 87 311 115
69 18 70 18 70 5z m1157 -5 c4 -12 -11 -31 -51 -66 -31 -28 -75 -77 -97 -109
-39 -58 -64 -73 -75 -45 -13 33 74 153 149 207 45 33 65 36 74 13z m903 -34
c0 -19 -7 -20 -110 -20 -103 0 -110 1 -110 20 0 19 7 20 110 20 103 0 110 -1
110 -20z m-1428 -37 c59 -40 132 -43 203 -8 75 36 109 24 65 -23 -77 -82 -232
-88 -313 -11 -33 32 -38 41 -27 54 17 21 28 19 72 -12z m1538 -83 c0 -19 -7
-20 -210 -20 -203 0 -210 1 -210 20 0 19 7 20 210 20 203 0 210 -1 210 -20z
m80 -300 l0 -201 -67 3 -68 3 -5 175 c-5 158 -7 175 -23 178 -42 8 -47 -11
-47 -189 l0 -169 -80 0 -80 0 0 175 c0 153 -2 176 -16 182 -9 3 -24 2 -33 -4
-14 -9 -16 -37 -19 -182 l-2 -171 -70 0 -70 0 0 200 0 200 290 0 290 0 0 -200z
m-682 114 c9 -2 12 -43 12 -159 0 -152 0 -155 -22 -155 -12 0 -30 -7 -40 -17
-15 -14 -18 -32 -18 -130 l0 -113 -29 0 c-36 0 -43 -9 -46 -66 -2 -25 -9 -52
-16 -61 -11 -12 -15 -84 -19 -315 l-5 -298 -37 31 -38 30 0 265 0 265 -25 24
c-24 25 -25 25 -233 25 -148 0 -211 -3 -220 -12 -16 -16 -16 45 0 164 10 76
15 92 32 98 12 5 48 19 81 31 86 33 165 81 231 142 63 57 142 170 162 232 l14
40 101 -8 c56 -5 108 -11 115 -13z m732 -419 l0 -25 -355 0 c-338 0 -355 1
-355 18 0 10 3 22 7 25 3 4 163 7 355 7 l348 0 0 -25z m790 -30 l0 -55 -135 0
-135 0 0 55 0 55 135 0 135 0 0 -55z m-3197 -181 l-8 -47 -58 90 c-31 50 -57
95 -57 100 0 5 28 23 63 40 l62 32 3 -84 c1 -46 -1 -105 -5 -131z m2407 86 l0
-30 -355 0 -355 0 0 30 0 30 355 0 355 0 0 -30z m-1880 -55 l0 -35 -140 0
-140 0 0 35 0 35 140 0 140 0 0 -35z m2748 8 c3 -19 -1 -23 -21 -23 -42 0 -57
-10 -57 -40 0 -26 4 -29 38 -32 32 -3 37 -7 40 -30 3 -24 0 -27 -35 -30 -31
-2 -39 -7 -41 -27 -4 -28 12 -41 51 -41 25 0 28 -3 25 -27 -3 -24 -8 -28 -40
-31 -34 -3 -38 -6 -38 -32 0 -29 15 -40 56 -40 19 0 24 -5 24 -24 0 -21 -5
-25 -37 -28 -35 -3 -38 -6 -38 -33 0 -28 3 -30 38 -33 35 -3 38 -6 35 -30 -3
-23 -8 -27 -40 -30 -35 -3 -38 -6 -38 -33 0 -24 4 -29 25 -30 14 -1 31 -2 38
-3 6 0 13 -13 15 -28 3 -24 0 -27 -35 -30 -35 -3 -38 -5 -38 -33 0 -27 3 -30
38 -33 34 -3 37 -6 37 -33 l0 -29 -215 0 -215 0 0 30 c0 28 3 30 35 30 28 0
36 4 41 24 8 35 -2 46 -42 46 -30 0 -34 3 -34 25 0 19 5 25 23 25 63 0 78 61
17 70 -29 4 -36 10 -38 33 -3 25 -1 27 32 27 29 0 37 4 42 24 8 35 -2 46 -42
46 -29 0 -34 3 -34 24 0 20 6 25 31 28 63 6 67 68 4 68 -32 0 -35 2 -35 29 0
26 4 30 31 33 63 6 67 68 4 68 -32 0 -35 2 -35 30 0 28 3 30 34 30 26 0 36 5
41 20 9 28 -11 50 -46 50 -24 0 -29 4 -29 25 l0 25 213 -2 c211 -3 212 -3 215
-25z m-798 -78 l0 -25 -425 0 -425 0 0 25 0 25 425 0 425 0 0 -25z m-1828
-102 c3 -32 3 -215 1 -408 -2 -192 -3 -398 -3 -457 l0 -108 -35 0 -35 0 0 54
c0 36 -5 60 -16 70 -18 19 -94 22 -112 4 -7 -7 -12 -38 -12 -70 l0 -58 -55 0
-55 0 0 65 c0 59 -2 65 -23 71 -13 3 -41 4 -63 2 l-39 -3 -3 -67 -3 -68 -39 0
-40 0 0 515 0 515 264 0 263 0 5 -57z m676 -2 c1 -1 2 -219 2 -486 l0 -485
-25 0 -25 0 0 461 0 460 -22 -3 -23 -3 -3 -457 -2 -458 -31 0 -30 0 2 448 c1
246 1 453 0 460 0 8 -10 12 -23 10 l-21 -3 2 -457 2 -458 -30 0 -31 0 -2 458
c-3 449 -3 457 -23 457 -20 0 -20 -8 -23 -457 l-2 -458 -25 0 -25 0 0 484 c0
453 1 485 18 489 14 3 331 2 340 -2z m1202 -486 c0 -473 0 -485 -19 -485 -14
0 -21 8 -23 27 -5 48 -78 40 -78 -8 0 -13 -7 -19 -24 -19 -18 0 -25 7 -30 31
-5 27 -9 30 -38 27 -25 -2 -34 -9 -38 -28 -4 -17 -14 -26 -32 -28 -21 -3 -26
2 -32 28 -5 28 -9 31 -38 28 -28 -2 -34 -8 -36 -30 -3 -22 -9 -28 -27 -28 -19
0 -24 6 -27 33 l-3 32 -70 0 -70 0 -3 -33 c-3 -32 -5 -33 -40 -30 -29 2 -37 8
-42 28 -4 19 -13 26 -38 28 -29 3 -33 0 -38 -27 -5 -26 -11 -31 -35 -31 -23 0
-28 5 -31 28 -3 24 -7 27 -38 27 -31 0 -35 -3 -38 -28 -2 -19 -9 -27 -23 -27
-19 0 -19 12 -19 485 l0 485 465 0 465 0 0 -485z m-2958 301 c26 -17 48 -34
48 -38 0 -16 -40 -98 -48 -98 -27 0 -131 169 -132 213 0 16 6 14 43 -13 23
-18 63 -46 89 -64z m-183 -89 c27 -69 99 -175 164 -244 l70 -74 -99 3 -99 3
-23 50 c-37 76 -62 190 -62 276 0 104 11 130 26 64 6 -27 17 -63 23 -78z m581
-37 l0 -130 -43 0 c-94 0 -248 40 -246 63 0 7 12 36 27 66 26 52 30 55 87 72
33 9 85 26 115 37 30 11 56 21 58 21 1 1 2 -57 2 -129z m2778 -105 c-2 -1 -18
-6 -35 -10 l-33 -7 0 65 c0 62 1 66 33 86 l32 20 3 -76 c2 -41 2 -77 0 -78z
m2 -134 c0 -33 -8 -37 -80 -47 l-50 -7 0 30 c0 27 4 31 43 40 76 19 87 17 87
-16z m-1943 -66 c41 -35 65 -80 77 -147 8 -44 -4 -50 -24 -13 -8 14 -38 41
-67 61 -52 34 -53 36 -53 85 0 60 11 62 67 14z m2473 -95 l0 -40 -215 0 -215
0 0 40 0 40 215 0 215 0 0 -40z m-3613 8 c4 -7 17 -37 28 -67 17 -46 25 -56
55 -65 57 -18 71 -30 81 -75 14 -63 -7 -86 -28 -31 -20 53 -105 52 -131 -3
-16 -32 -28 -35 -35 -7 -4 17 -14 20 -60 20 -47 0 -57 -3 -62 -20 -10 -32 -48
-26 -62 10 -20 53 -101 53 -131 0 -20 -35 -28 -37 -35 -10 -4 16 -14 20 -46
20 l-41 0 0 113 c0 63 3 117 7 120 3 4 107 7 229 7 164 0 225 -3 231 -12z
m3083 -57 c0 -39 -3 -72 -7 -74 -5 -3 -34 -8 -65 -12 l-58 -7 0 70 0 70 38 10
c20 5 49 10 65 11 27 1 27 1 27 -68z m-1272 -6 c19 -5 22 -13 22 -56 l0 -49
-40 0 -40 0 0 61 c0 65 -4 62 58 44z m1802 -125 l0 -80 -215 0 -215 0 0 80 0
80 215 0 215 0 0 -80z"/>
<path d="M2576 2634 c-19 -18 -20 -28 -6 -55 20 -36 80 -21 80 20 0 48 -42 68
-74 35z"/>
<path d="M3466 2604 c-11 -29 -6 -53 14 -64 42 -22 82 34 48 68 -17 17 -55 15
-62 -4z"/>
<path d="M2870 2595 c-7 -8 -10 -21 -7 -29 3 -8 -4 -18 -19 -25 -29 -13 -32
-51 -6 -74 24 -21 46 -21 80 0 64 40 64 41 34 94 -28 52 -58 64 -82 34z"/>
<path d="M2956 2165 c-8 -22 4 -45 24 -45 23 0 44 26 36 45 -7 19 -52 20 -60
0z"/>
<path d="M3194 2165 c-10 -25 4 -47 28 -43 17 2 24 11 26 31 3 23 0 27 -23 27
-14 0 -28 -7 -31 -15z"/>
<path d="M3432 2153 c2 -22 8 -28 28 -28 20 0 25 5 25 25 0 20 -6 26 -28 28
-26 3 -28 1 -25 -25z"/>
<path d="M2960 2041 c-14 -28 13 -55 41 -41 24 14 24 36 0 50 -26 14 -29 13
-41 -9z"/>
<path d="M3202 2048 c-25 -25 0 -64 32 -52 21 8 21 50 0 58 -20 8 -18 8 -32
-6z"/>
<path d="M3443 2053 c-19 -7 -16 -50 4 -57 24 -10 51 20 37 41 -12 19 -23 24
-41 16z"/>
<path d="M2960 1914 c-11 -12 -10 -18 3 -31 18 -18 44 -12 54 13 11 30 -35 45
-57 18z"/>
<path d="M3197 1924 c-14 -15 -6 -43 14 -49 25 -8 42 6 37 31 -3 19 -38 31
-51 18z"/>
<path d="M3434 1916 c-10 -26 4 -48 28 -44 17 2 23 10 23 28 0 18 -6 26 -23
28 -13 2 -25 -3 -28 -12z"/>
<path d="M4116 1514 c-10 -9 -15 -23 -12 -31 3 -8 6 -17 6 -19 0 -2 45 -4 100
-4 84 0 102 3 107 16 14 37 -10 49 -99 52 -69 2 -89 0 -102 -14z"/>
<path d="M4114 1386 c-3 -8 -4 -23 -2 -33 3 -16 15 -18 97 -18 75 0 96 3 104
16 6 9 7 24 4 33 -9 22 -195 24 -203 2z"/>
<path d="M4110 1251 c-7 -15 -6 -24 6 -36 13 -12 34 -15 102 -13 89 3 113 15
99 52 -5 13 -23 16 -101 16 -84 0 -97 -2 -106 -19z"/>
<path d="M4122 1141 c-8 -4 -12 -19 -10 -32 3 -23 6 -24 100 -27 l97 -3 7 27
c4 17 2 29 -7 35 -18 11 -170 11 -187 0z"/>
<path d="M4110 990 c0 -37 17 -42 119 -38 77 3 101 17 88 52 -5 13 -23 16
-107 16 l-100 0 0 -30z"/>
<path d="M4110 880 c-22 -41 2 -51 109 -48 l96 3 0 30 0 30 -97 3 c-90 2 -98
1 -108 -18z"/>
<path d="M1347 1359 c-3 -12 -3 -35 0 -50 5 -28 7 -29 69 -29 l64 0 0 50 0 50
-64 0 c-57 0 -64 -2 -69 -21z"/>
<path d="M1590 1330 l0 -51 68 3 67 3 0 45 0 45 -67 3 -68 3 0 -51z"/>
<path d="M1354 1207 c-3 -8 -4 -32 -2 -53 l3 -39 60 0 60 0 0 50 0 50 -58 3
c-43 2 -59 -1 -63 -11z"/>
<path d="M1594 1206 c-3 -8 -4 -31 -2 -52 l3 -39 53 -3 c31 -2 60 2 68 9 17
14 19 70 2 87 -17 17 -117 16 -124 -2z"/>
<path d="M1352 998 l3 -53 60 0 60 0 0 50 0 50 -63 3 -63 3 3 -53z"/>
<path d="M1594 1037 c-3 -8 -4 -32 -2 -53 l3 -39 53 -3 c68 -4 84 8 80 62 l-3
41 -63 3 c-47 2 -64 -1 -68 -11z"/>
<path d="M1352 828 l3 -53 60 0 60 0 0 50 0 50 -63 3 -63 3 3 -53z"/>
<path d="M1592 828 l3 -53 62 -3 c59 -3 63 -2 68 21 4 14 5 38 3 53 -3 28 -4
29 -71 32 l-68 3 3 -53z"/>
<path d="M1354 698 c-11 -18 -5 -91 9 -100 14 -9 79 -10 101 -2 12 4 16 20 16
54 0 34 -4 50 -16 54 -27 11 -103 6 -110 -6z"/>
<path d="M1603 703 c-20 -7 -17 -99 3 -107 30 -12 93 -6 108 10 19 18 21 75 4
92 -12 12 -91 15 -115 5z"/>
<path d="M2948 1309 c-13 -7 -18 -23 -18 -60 0 -43 3 -51 25 -61 37 -17 55 4
55 63 0 38 -4 51 -19 59 -23 12 -22 12 -43 -1z"/>
<path d="M3307 1308 c-12 -6 -17 -22 -17 -57 0 -59 18 -80 55 -63 22 10 25 18
25 60 0 41 -4 50 -23 59 -15 7 -29 7 -40 1z"/>
<path d="M3578 1309 c-23 -13 -25 -91 -2 -113 35 -36 64 -10 64 56 0 37 -4 50
-19 58 -23 12 -22 12 -43 -1z"/>
<path d="M2797 1304 c-4 -4 -7 -29 -7 -55 0 -56 23 -79 61 -59 17 10 20 19 17
63 -3 50 -4 52 -33 55 -17 2 -34 0 -38 -4z"/>
<path d="M3092 1253 l3 -58 70 0 70 0 0 55 0 55 -73 3 -73 3 3 -58z"/>
<path d="M3437 1303 c-4 -3 -7 -30 -7 -59 0 -50 9 -64 40 -64 34 0 55 91 28
118 -13 13 -50 16 -61 5z"/>
<path d="M2794 1087 c-11 -29 1 -100 19 -111 32 -20 52 4 52 65 0 54 0 54 -33
57 -21 2 -34 -2 -38 -11z"/>
<path d="M2937 1094 c-4 -4 -7 -29 -7 -54 0 -55 17 -75 55 -66 25 6 26 10 23
64 -3 55 -4 57 -33 60 -17 2 -34 0 -38 -4z"/>
<path d="M3090 1040 l0 -61 73 3 72 3 0 55 0 55 -72 3 -73 3 0 -61z"/>
<path d="M3297 1094 c-4 -4 -7 -31 -7 -60 0 -49 2 -54 25 -60 40 -10 56 11 53
70 -3 49 -4 51 -33 54 -17 2 -34 0 -38 -4z"/>
<path d="M3430 1040 c0 -55 2 -60 25 -66 35 -9 55 11 55 56 0 58 -8 70 -46 70
l-34 0 0 -60z"/>
<path d="M3567 1094 c-4 -4 -7 -29 -7 -54 0 -55 17 -75 55 -66 25 6 26 10 23
64 -3 55 -4 57 -33 60 -17 2 -34 0 -38 -4z"/>
<path d="M2794 877 c-3 -8 -4 -36 -2 -63 3 -49 3 -49 38 -49 l35 0 0 60 0 60
-33 3 c-21 2 -34 -2 -38 -11z"/>
<path d="M2936 875 c-9 -24 -7 -88 3 -103 5 -8 21 -12 37 -10 28 3 29 4 29 63
0 60 0 60 -31 63 -22 2 -33 -2 -38 -13z"/>
<path d="M3094 877 c-3 -8 -4 -36 -2 -63 l3 -49 70 0 70 0 0 60 0 60 -68 3
c-51 2 -69 -1 -73 -11z"/>
<path d="M3294 876 c-3 -7 -4 -35 -2 -62 3 -49 3 -49 38 -49 35 0 35 0 38 48
2 27 -2 55 -9 63 -15 18 -58 18 -65 0z"/>
<path d="M3434 876 c-3 -7 -4 -35 -2 -62 3 -42 6 -49 26 -52 13 -2 30 2 38 8
17 15 19 91 2 108 -16 16 -57 15 -64 -2z"/>
<path d="M3572 878 c-14 -14 -16 -86 -3 -106 5 -8 21 -12 37 -10 28 3 29 4 29
63 0 57 -1 60 -25 63 -14 2 -31 -3 -38 -10z"/>
<path d="M2803 673 c-8 -3 -13 -25 -13 -58 0 -44 4 -56 20 -65 14 -8 26 -8 40
0 29 15 29 104 1 120 -21 11 -29 11 -48 3z"/>
<path d="M2942 668 c-13 -13 -16 -86 -4 -104 11 -17 35 -22 55 -12 24 12 25
113 1 122 -24 9 -39 7 -52 -6z"/>
<path d="M3099 669 c-6 -3 -9 -30 -7 -60 l3 -54 70 0 70 0 3 58 c3 53 2 57
-20 59 -56 4 -111 3 -119 -3z"/>
<path d="M3303 673 c-8 -3 -13 -25 -13 -58 0 -44 4 -56 20 -65 14 -8 26 -8 40
0 29 15 29 104 1 120 -21 11 -29 11 -48 3z"/>
<path d="M3443 673 c-8 -3 -13 -25 -13 -58 0 -43 4 -56 19 -65 25 -13 27 -13
45 6 24 23 21 100 -3 114 -21 11 -29 11 -48 3z"/>
<path d="M3578 669 c-23 -13 -25 -91 -2 -113 36 -37 64 -10 64 60 0 38 -4 53
-16 58 -21 8 -26 7 -46 -5z"/>
<path d="M392 628 c-6 -6 -12 -27 -12 -45 0 -39 25 -56 70 -47 30 6 31 8 28
53 -3 45 -4 46 -38 49 -19 2 -41 -3 -48 -10z"/>
<path d="M527 634 c-4 -4 -7 -27 -7 -51 l0 -43 46 0 45 0 -3 48 c-3 46 -4 47
-38 50 -20 2 -39 0 -43 -4z"/>
<path d="M667 634 c-4 -4 -7 -27 -7 -51 l0 -43 75 0 c83 0 85 2 57 60 -16 32
-21 35 -67 38 -28 2 -54 0 -58 -4z"/>
<path d="M3767 4368 c-17 -13 -107 -208 -107 -232 0 -23 37 -49 63 -42 18 4
32 24 57 78 18 40 39 86 46 102 20 42 18 83 -5 96 -25 13 -34 13 -54 -2z"/>
<path d="M3947 4163 c-25 -21 -52 -51 -62 -66 -15 -26 -15 -30 -1 -52 22 -33
36 -31 88 11 82 67 93 89 58 124 -27 27 -32 26 -83 -17z"/>
<path d="M3924 3845 c-29 -45 1 -180 47 -208 23 -14 118 18 163 55 79 65 19
154 -76 113 -13 -5 -18 -3 -18 9 0 26 -38 56 -70 56 -21 0 -35 -8 -46 -25z"/>
<path d="M4282 3358 c-17 -17 -15 -53 6 -70 19 -16 210 -45 236 -35 23 9 32
56 13 74 -15 15 -151 42 -212 43 -17 0 -36 -5 -43 -12z"/>
<path d="M4227 3179 c-26 -36 -9 -58 74 -100 89 -44 112 -48 132 -18 26 36 9
58 -74 100 -89 44 -112 48 -132 18z"/>
<path d="M4159 2749 c-24 -24 -20 -67 12 -131 26 -50 45 -59 92 -43 61 21 107
62 107 95 0 41 -38 66 -80 52 -24 -9 -30 -8 -30 3 0 17 -38 45 -62 45 -10 0
-27 -9 -39 -21z"/>
<path d="M4235 2380 c-3 -5 -14 -10 -24 -10 -10 0 -25 -8 -35 -18 -15 -18 -15
-22 5 -66 11 -26 27 -50 34 -53 8 -2 34 2 57 9 47 16 59 39 34 67 -9 10 -14
25 -10 35 12 31 -43 65 -61 36z"/>
</g>
</svg>
